<svg xmlns="http://www.w3.org/2000/svg" xmlns:xlink="http://www.w3.org/1999/xlink" viewBox="0 0 402.91 314.02"><defs><linearGradient id="Degradado_sin_nombre_13" x1="209.9" y1="18.23" x2="234.92" y2="26.47" gradientTransform="rotate(-22.89 219.808 122.709)" gradientUnits="userSpaceOnUse"><stop offset="0" stop-color="#0d0549"/><stop offset="1" stop-color="#0d0549" stop-opacity="0"/></linearGradient><linearGradient id="Degradado_sin_nombre_13-2" x1="201.53" y1="60.87" x2="214.18" y2="80.54" xlink:href="#Degradado_sin_nombre_13"/><style>.cls-1{fill:#fff}.cls-2{fill:#64b5f2}.cls-3{fill:#53c1f9}.cls-4{fill:#efd13e}.cls-5{fill:#d36389}.cls-6{fill:#241084}.cls-7{fill:#0d0549}.cls-8{fill:#ffcfd3}</style></defs><g id="Слой_2" data-name="Слой 2"><g id="OBJECTS"><path class="cls-1" d="M314.6 57.4c-.62-4.1-3.57-7.21-7.12-7.21a6.1 6.1 0 00-1.71.26c-1.26-7.59-6.76-13.3-13.36-13.3-5.34 0-10 3.73-12.19 9.17a9.26 9.26 0 00-2.47-.34 10.75 10.75 0 00-9 5.35 6.26 6.26 0 00-3.56-1.14c-3.55 0-6.5 3.11-7.12 7.21zM84.91 65c-.47-3.09-2.69-5.43-5.37-5.43a4.56 4.56 0 00-1.28.19c-1-5.71-5.1-10-10.07-10-4 0-7.49 2.81-9.18 6.9a7.19 7.19 0 00-1.86-.25 8.11 8.11 0 00-6.74 4 4.76 4.76 0 00-2.68-.85c-2.67 0-4.9 2.34-5.37 5.43zm278.14 189.25c-.69-4.49-3.91-7.88-7.79-7.88a6.45 6.45 0 00-1.86.28c-1.38-8.29-7.39-14.53-14.6-14.53-5.83 0-10.88 4.07-13.33 10a10.51 10.51 0 00-2.69-.36 11.74 11.74 0 00-9.79 5.84 6.84 6.84 0 00-3.89-1.24c-3.88 0-7.1 3.39-7.78 7.88z"/><path class="cls-2" d="M357.37 149.61c-.62-4.09-3.57-7.19-7.11-7.19a6 6 0 00-1.7.25c-1.26-7.56-6.75-13.26-13.34-13.26-5.32 0-9.93 3.72-12.16 9.14a9.68 9.68 0 00-2.47-.33 10.74 10.74 0 00-8.94 5.33 6.24 6.24 0 00-3.55-1.13c-3.54 0-6.48 3.1-7.11 7.19z"/><path class="cls-3" d="M12.23 182.7l-.95-1.76 86.7-46.54 8.19 15.25 76.29-40.94 7.85 14.62 103.86-55.75.94 1.76-105.62 56.7-7.85-14.62-76.28 40.94-8.19-15.26-84.94 45.6z"/><path class="cls-3" d="M293.18 76.14l-1.41-.47 2.37-6.94-7.09-1.86.38-1.44 8.63 2.27-2.88 8.44z"/><path class="cls-1" d="M65.4 314.02l-.95-1.76 120.4-64.62 8.19 15.25 168.7-90.55.95 1.76-170.47 91.5-8.19-15.25L65.4 314.02z"/><path class="cls-1" d="M360.75 180.91l-1.41-.48 2.37-6.94-7.09-1.86.38-1.43 8.63 2.26-2.88 8.45z"/><path class="cls-4" d="M85.18 237.91l-.95-1.76 49.83-26.75 9.9 18.44 106.8-57.33 4.43 8.26 145.82-78.27.95 1.77-147.58 79.21-4.44-8.26-106.8 57.32-9.89-18.43-48.07 25.8z"/><path class="cls-4" d="M400.02 109.07l-1.41-.48 2.37-6.93-7.09-1.86.38-1.44 8.64 2.26-2.89 8.45z"/><path class="cls-5" d="M.95 139.1L0 137.34 151.55 56l18.22 33.95L334.28 1.64l.95 1.77-166.28 89.25-18.22-33.96L.95 139.1z"/><path class="cls-5" d="M333.54 8.94l-1.18-.4 1.98-5.79-5.92-1.55.32-1.2 7.2 1.89-2.4 7.05z"/><path class="cls-1" d="M398.54 52.36l2.94-8.35-8.54-2.33-.23-.42-.45.24-25.43-6.94-1.58 5.78 19.23 5.24L21.15 236.07l6.04 11.52 363.34-190.5-6.64 18.8 5.65 1.99 8.77-24.87.44-.24-.21-.41z"/><path class="cls-6" transform="rotate(39.3 105.47 88.16)" d="M86.6 76.23h36.91v23.38H86.6z"/><path class="cls-7" transform="matrix(.77 .63 -.63 .77 76.97 -50.41)" d="M90.77 77.72h36.91v10.19H90.77z"/><path class="cls-7" d="M110.3 84.33l-2.78-2.27a5.36 5.36 0 116.78-8.31l2.78 2.25a5.36 5.36 0 11-6.78 8.31zm3.37-9.8a4.36 4.36 0 10-5.52 6.76l2.78 2.27a4.36 4.36 0 105.52-6.76z"/><path class="cls-1" transform="rotate(39.22 106.154 86.566)" d="M104.58 84.14h3.16V89h-3.16z"/><path class="cls-6" d="M173.35 34.01l40.12-23.14 2.63 1.53-37.89 33.12-4.86-11.51zm-5.02 40.72l41.58 22.54 10.29 37.14 13.65-7.16-.9-1.79-10.04 3.96L217.52 91l-35.49-22.23-13.7 5.96z"/><path class="cls-7" d="M144.45 80s-4.44-6.57 2.17-9.09 21.95 1.41 21.95 1.41L173.35 34l-11.26 5.41-7.89 13.75-9.42 14.65-4.17 5z"/><path class="cls-8" d="M170.67 22.9l-1.08 14.48-6.35-.26.71-11.15 6.72-3.07z"/><path class="cls-6" d="M162.3 77.53l8.43 88 13.65-5.76-.36-2.88-9.87 2.72 5.38-87.23-17.23 5.15z"/><path fill="url(#Degradado_sin_nombre_13)" d="M173.35 34.01l40.12-23.14 2.63 1.53-37.89 33.12-4.86-11.51z"/><path class="cls-1" d="M116.52 69.15l-1.25 2.01 3.35.22 2.63-3.94-4.73 1.71zM156.42 35l5.9 42.63L183.21 70l-1.43-26c-1.14-12-9.95-14.78-21.29-10.55z"/><path class="cls-6" d="M156.42 34.96l-24.45 10.76-15.45 23.43 4.73-.24 16.16-17.58 24.71-9.11-5.7-7.26z"/><path class="cls-6" d="M163.51 31.87s4.89 6.87 1.06 11.13-20.12 37-20.12 37-9.55-4.57-6-10.36 16.35-27.09 16.35-27.09l1.62-7.55z"/><path class="cls-8" d="M119.24 72.07a3 3 0 11-3.95-1.6 3 3 0 013.95 1.6z"/><path class="cls-1" d="M213.47 10.87l2.96-1.79 1.88 1.79-2.21 1.53-2.63-1.53z"/><path d="M183.21 70l-3.68 2.36-.27 3.85-.36 4.23 22.6 12.25c2.45-2.45 2.86-5.72 5.38-8.37z" fill="url(#Degradado_sin_nombre_13-2)"/><path class="cls-8" d="M216.43 9.09l11.21-7.92.65.71-4.45 4.07 2.07 2.41-7.6 2.51-1.88-1.78z"/><path class="cls-1" d="M163.51 32.63v-3.47h6.58l-1.73 3.64-4.85-.17zm6.58-3.47l1.91 3.12-.35-4.16-1.56 1.04z"/><path class="cls-8" d="M163.61 27.06l10.69-4.77a4.26 4.26 0 002-5.95l-1.59-2.87 1.33-1-5.69-3.63-4.65-4.47-3.93 3.25-8.28 8.1z"/><path class="cls-6" d="M166.76 2.34l-.71 2.46-6.55 7.33 2.5 4.51-.63 1.13-.3-.47a2.06 2.06 0 00-2.33-.45 1 1 0 00-.44 1.56 3.36 3.36 0 002.82 1.86l2.48 6.79-12.24-11.55 12-13.17z"/><path class="cls-7" d="M170.1 29.16l1.9 3.12s-.59.36-.48.45 9.8 21.27 9.8 21.27l-1.23 1.62-3.77-1-5.52-21.86-2-1z"/><path class="cls-2" d="M111.61 280.17c-.83-5.48-4.78-9.64-9.53-9.64a8.2 8.2 0 00-2.27.34c-1.69-10.14-9-17.77-17.88-17.77-7.13 0-13.31 5-16.3 12.25a12.59 12.59 0 00-3.31-.45c-4.87 0-9.2 2.81-12 7.15a8.36 8.36 0 00-4.75-1.52c-4.75 0-8.69 4.16-9.53 9.64z"/></g></g></svg>